<?xml version="1.0" encoding="UTF-8"?>
<!-- Generator: Adobe Illustrator 21.1.0, SVG Export Plug-In . SVG Version: 6.00 Build 0)  -->
<svg version="1.1" id="Ebene_1" xmlns="http://www.w3.org/2000/svg" xmlns:xlink="http://www.w3.org/1999/xlink" x="0px" y="0px" width="145px" height="50px" viewBox="0 0 145 50" style="enable-background:new 0 0 145 50;" xml:space="preserve">
<style type="text/css">
	.st0{fill:#FFFFFF;}
</style>
<g>
	<path class="st0" d="M145,13.8h-12.7V16h5v13.8h2.8V16h5V13.8z M125.4,17.2l2.3,6.7h-4.7L125.4,17.2z M129.9,29.9h2.9l-6.1-16.1   h-2.5l-6.1,16.1h2.9l1.3-3.7h6.2L129.9,29.9z M118.7,13.8h-12.7V16h5v13.8h2.8V16h5V13.8z M103.9,13.8h-2.8v16.1h2.8V13.8z    M94.9,27.3c-0.5,0.4-1.2,0.6-2.2,0.6c-1.1,0-2-0.2-2.6-0.8c-0.6-0.5-0.9-1.2-0.9-2.1h-2.8c0,1,0.3,1.9,0.8,2.7   c0.5,0.8,1.3,1.4,2.3,1.8c1,0.4,2,0.6,3.2,0.6c1.8,0,3.1-0.4,4.2-1.2c1-0.8,1.5-1.9,1.5-3.2c0-0.8-0.2-1.5-0.5-2.2   c-0.4-0.6-0.9-1.2-1.7-1.6c-0.8-0.5-1.8-0.9-3-1.3c-1.3-0.4-2.1-0.8-2.7-1.1c-0.5-0.4-0.8-0.9-0.8-1.5c0-0.7,0.3-1.2,0.8-1.6   c0.5-0.4,1.2-0.6,2.1-0.6c1,0,1.7,0.2,2.3,0.7c0.5,0.5,0.8,1.1,0.8,2h2.8c0-0.9-0.2-1.8-0.7-2.5c-0.5-0.8-1.2-1.3-2.1-1.8   c-0.9-0.4-1.9-0.6-3-0.6c-1.7,0-3.1,0.4-4.1,1.3c-1.1,0.8-1.6,1.9-1.6,3.2c0,1.5,0.7,2.7,2.2,3.6c0.8,0.5,1.8,0.9,3.1,1.3   c1.3,0.4,2.2,0.8,2.7,1.2c0.5,0.4,0.7,0.9,0.7,1.6C95.6,26.4,95.3,26.9,94.9,27.3 M75.8,16h2.9c1,0,1.7,0.3,2.2,0.7   c0.5,0.5,0.7,1.1,0.7,2c0,0.8-0.3,1.5-0.8,2c-0.5,0.5-1.3,0.7-2.2,0.7h-2.9V16z M82.1,29.9h3v-0.1L81.5,23c0.9-0.4,1.6-1,2.2-1.7   c0.5-0.7,0.8-1.6,0.8-2.7c0-1.6-0.5-2.8-1.5-3.6c-1-0.8-2.4-1.3-4.3-1.3H73v16.1h2.8v-6.2h3.1L82.1,29.9z M69.5,20.5h-6.6V16h7.6   v-2.3H60.1v16.1h10.5v-2.3h-7.7v-4.9h6.6V20.5z M47.1,13.8H44l5.8,16.1h2.7l5.8-16.1h-3.1l-4.1,12.6L47.1,13.8z M41.9,13.8h-2.8   v16.1h2.8V13.8z M35.6,13.8h-2.8v11.5l-7.2-11.5h-2.8v16.1h2.8V18.5l7.2,11.4h2.8V13.8z M17,13.8v10.7c0,2.3-1.1,3.4-3.2,3.4   c-1.1,0-1.9-0.3-2.4-0.8c-0.5-0.6-0.8-1.4-0.8-2.5V13.8H7.8v10.7c0,1.7,0.5,3.1,1.6,4.1c1.1,1,2.5,1.5,4.4,1.5   c1.8,0,3.3-0.5,4.4-1.5c1.1-1,1.6-2.4,1.6-4.1V13.8H17z M128.1,15c0-0.4,0.1-0.7,0.4-0.9c0.2-0.3,0.6-0.4,1-0.4   c0.4,0,0.8,0.1,1,0.4c0.3,0.3,0.4,0.6,0.4,0.9c0,0.4-0.1,0.7-0.4,0.9c-0.2,0.3-0.6,0.4-1,0.4c-0.4,0-0.8-0.1-1-0.4   C128.3,15.7,128.1,15.4,128.1,15 M120.4,15.9c0.2,0.3,0.6,0.4,1,0.4c0.4,0,0.8-0.1,1-0.4c0.3-0.3,0.4-0.6,0.4-0.9   c0-0.4-0.1-0.7-0.4-0.9c-0.2-0.3-0.6-0.4-1-0.4c-0.4,0-0.8,0.1-1,0.4c-0.2,0.3-0.4,0.6-0.4,0.9C120,15.4,120.1,15.7,120.4,15.9"/>
	<path class="st0" d="M145,5h-3.5v1.3h3.5V5z M134.9,1.5h1.8c0.6,0,1,0.2,1.3,0.4c0.3,0.3,0.4,0.7,0.4,1.2c0,0.5-0.2,0.9-0.5,1.2   c-0.3,0.3-0.8,0.4-1.3,0.4h-1.7V1.5z M138.7,9.7h1.8V9.6l-2.2-4c0.6-0.2,1-0.6,1.3-1c0.3-0.4,0.5-1,0.5-1.6c0-0.9-0.3-1.7-0.9-2.2   c-0.6-0.5-1.5-0.7-2.6-0.7h-3.4v9.6h1.7V6h1.9L138.7,9.7z M131.2,4.1h-3.9V1.5h4.5V0.1h-6.2v9.6h6.3V8.4h-4.6V5.4h3.9V4.1z    M119.9,0.1h-1.7v9.6h6V8.4h-4.3V0.1z M112.6,0.1h-1.7v9.6h6V8.4h-4.3V0.1z M108.8,0.1h-1.7v9.6h1.7V0.1z M105,0.1h-1.7v4h-4.3v-4   h-1.7v9.6h1.7V5.5h4.3v4.3h1.7V0.1z M94.2,6.6c-0.1,0.7-0.3,1.2-0.6,1.5c-0.3,0.3-0.8,0.4-1.5,0.4c-0.7,0-1.3-0.3-1.6-0.8   c-0.4-0.5-0.6-1.3-0.6-2.4V4.5c0-1,0.2-1.8,0.6-2.3c0.4-0.5,0.9-0.8,1.7-0.8c0.6,0,1.1,0.2,1.4,0.5c0.3,0.3,0.5,0.8,0.6,1.5h1.7   c-0.1-1.1-0.5-1.9-1.1-2.4C94.1,0.3,93.2,0,92.2,0c-0.8,0-1.5,0.2-2.1,0.6c-0.6,0.4-1.1,0.9-1.4,1.6c-0.3,0.7-0.5,1.5-0.5,2.4v0.9   c0,0.9,0.2,1.7,0.5,2.3c0.3,0.7,0.8,1.2,1.3,1.5c0.6,0.4,1.3,0.5,2,0.5c1.1,0,2-0.3,2.6-0.9c0.7-0.6,1-1.4,1.1-2.4H94.2z M84.9,8.2   c-0.3,0.2-0.7,0.4-1.3,0.4c-0.7,0-1.2-0.1-1.5-0.4c-0.4-0.3-0.5-0.7-0.5-1.3h-1.7c0,0.6,0.2,1.1,0.5,1.6c0.3,0.5,0.8,0.8,1.4,1.1   c0.6,0.3,1.2,0.4,1.9,0.4c1.1,0,1.9-0.2,2.5-0.7C86.7,8.7,87,8,87,7.2c0-0.5-0.1-0.9-0.3-1.3c-0.2-0.4-0.5-0.7-1-1   c-0.5-0.3-1-0.5-1.8-0.8c-0.7-0.2-1.3-0.4-1.6-0.7c-0.3-0.2-0.5-0.5-0.5-0.9c0-0.4,0.1-0.7,0.5-1c0.3-0.2,0.7-0.3,1.3-0.3   c0.6,0,1,0.1,1.3,0.4c0.3,0.3,0.5,0.7,0.5,1.2H87c0-0.6-0.1-1.1-0.4-1.5c-0.3-0.5-0.7-0.8-1.2-1.1C84.8,0.1,84.2,0,83.5,0   c-1,0-1.8,0.3-2.4,0.8c-0.6,0.5-0.9,1.1-0.9,1.9c0,0.9,0.4,1.6,1.3,2.1c0.5,0.3,1.1,0.5,1.8,0.8c0.8,0.2,1.3,0.5,1.6,0.7   c0.3,0.2,0.4,0.6,0.4,1C85.3,7.6,85.2,8,84.9,8.2 M78.1,5h-3.5v1.3h3.5V5z M72.8,0.1h-1.7v4h-4.3v-4h-1.7v9.6h1.7V5.5h4.3v4.3h1.7   V0.1z M62,6.6c-0.1,0.7-0.3,1.2-0.6,1.5c-0.3,0.3-0.8,0.4-1.5,0.4c-0.7,0-1.3-0.3-1.6-0.8c-0.4-0.5-0.6-1.3-0.6-2.4V4.5   c0-1,0.2-1.8,0.6-2.3c0.4-0.5,0.9-0.8,1.7-0.8c0.6,0,1.1,0.2,1.4,0.5C61.8,2.1,62,2.6,62,3.3h1.7c-0.1-1.1-0.5-1.9-1.1-2.4   C61.9,0.3,61.1,0,60,0c-0.8,0-1.5,0.2-2.1,0.6c-0.6,0.4-1.1,0.9-1.4,1.6c-0.3,0.7-0.5,1.5-0.5,2.4v0.9c0,0.9,0.2,1.7,0.5,2.3   c0.3,0.7,0.8,1.2,1.3,1.5c0.6,0.4,1.3,0.5,2,0.5c1.1,0,2-0.3,2.6-0.9c0.7-0.6,1-1.4,1.1-2.4H62z M54.3,0.1h-1.7v9.6h1.7V0.1z    M45.7,1.5h1.8c0.6,0,1,0.2,1.3,0.4c0.3,0.3,0.4,0.7,0.4,1.2c0,0.5-0.2,0.9-0.5,1.2c-0.3,0.3-0.8,0.4-1.3,0.4h-1.7V1.5z M49.5,9.7   h1.8V9.6l-2.1-4c0.6-0.2,1-0.6,1.3-1c0.3-0.4,0.5-1,0.5-1.6c0-0.9-0.3-1.7-0.9-2.2c-0.6-0.5-1.5-0.7-2.6-0.7h-3.4v9.6h1.7V6h1.9   L49.5,9.7z M38,1.5c0.9,0,1.5,0.3,2,0.8c0.5,0.5,0.7,1.3,0.7,2.4v0.5c0,1-0.2,1.8-0.7,2.4c-0.5,0.5-1.1,0.8-2,0.8h-1.1V1.5H38z    M38,9.7c0.9,0,1.6-0.2,2.3-0.6c0.7-0.4,1.2-0.9,1.5-1.6c0.4-0.7,0.5-1.5,0.5-2.4V4.7c0-0.9-0.2-1.7-0.5-2.4   c-0.4-0.7-0.9-1.2-1.5-1.6c-0.7-0.4-1.4-0.6-2.3-0.6h-2.8v9.6H38z M33.1,4.1h-3.9V1.5h4.6V0.1h-6.2v9.6h6.3V8.4h-4.6V5.4h3.9V4.1z    M25.4,0.1h-1.7v9.6h1.7V0.1z M16.9,1.5h1.8c0.6,0,1,0.2,1.3,0.4c0.3,0.3,0.4,0.7,0.4,1.2c0,0.5-0.2,0.9-0.5,1.2   c-0.3,0.3-0.8,0.4-1.3,0.4h-1.7V1.5z M20.7,9.7h1.8V9.6l-2.2-4c0.6-0.2,1-0.6,1.3-1c0.3-0.4,0.5-1,0.5-1.6c0-0.9-0.3-1.7-0.9-2.2   c-0.6-0.5-1.5-0.7-2.6-0.7h-3.4v9.6h1.7V6h1.9L20.7,9.7z M13.3,4.3H9.4V1.5h4.4V0.1H7.8v9.6h1.7V5.7h3.9V4.3z"/>
	<path class="st0" d="M49.3,37.1l2.3,6.7H47L49.3,37.1z M53.8,49.8h2.9l-6.1-16.1h-2.5L42,49.8h2.9l1.3-3.8h6.2L53.8,49.8z    M39.7,33.7h-2.8v11.5l-7.2-11.5h-2.8v16.1h2.8V38.3l7.2,11.4h2.8V33.7z M23.3,40.4h-6.6v-4.5h7.6v-2.3H13.9v16.1h10.5v-2.3h-7.7   v-4.9h6.6V40.4z M7.7,44.9c0,0.9-0.2,1.6-0.7,2.1c-0.4,0.5-1,0.7-1.8,0.7c-0.8,0-1.4-0.2-1.8-0.6C3,46.7,2.8,46,2.8,45.2H0   c0,1.5,0.5,2.7,1.4,3.6C2.3,49.6,3.6,50,5.3,50c1.6,0,2.8-0.5,3.8-1.4c1-0.9,1.4-2.1,1.4-3.7V33.7H7.7V44.9z"/>
</g>
</svg>