<?xml version="1.0" encoding="UTF-8"?>
<!-- Generator: Adobe Illustrator 21.1.0, SVG Export Plug-In . SVG Version: 6.00 Build 0)  -->
<svg version="1.1" id="Ebene_1" xmlns="http://www.w3.org/2000/svg" xmlns:xlink="http://www.w3.org/1999/xlink" x="0px" y="0px" width="5px" height="9px" viewBox="0 0 5 9" style="enable-background:new 0 0 5 9;" xml:space="preserve">
<style type="text/css">
	.st0{opacity:0.7;}
	.st1{fill:#FFFFFF;}
</style>
<g class="st0">
	<path class="st1" d="M4.7,4.8c-0.1,0-0.2,0-0.2-0.1L0.1,0.6C0,0.5,0,0.3,0.1,0.1C0.2,0,0.4,0,0.5,0.1l4.3,4.2C5,4.4,5,4.6,4.9,4.7   C4.9,4.8,4.8,4.8,4.7,4.8z"/>
	<path class="st1" d="M0.3,9C0.2,9,0.1,9,0.1,8.9C0,8.7,0,8.5,0.1,8.4l4.3-4.2c0.1-0.1,0.3-0.1,0.5,0C5,4.4,5,4.6,4.9,4.8L0.5,8.9   C0.5,9,0.4,9,0.3,9z"/>
</g>
</svg>